<mxfile host="app.diagrams.net" agent="Mozilla/5.0 (Windows NT 10.0; Win64; x64) AppleWebKit/537.36 (KHTML, like Gecko) Chrome/140.0.0.0 Safari/537.36" version="28.2.0">
  <diagram name="Page-1" id="TZegymP7dULknj5bmCQ9">
    <mxGraphModel dx="1965" dy="1063" grid="1" gridSize="10" guides="1" tooltips="1" connect="1" arrows="1" fold="1" page="1" pageScale="1" pageWidth="850" pageHeight="1100" math="0" shadow="0">
      <root>
        <mxCell id="0" />
        <mxCell id="1" parent="0" />
        <mxCell id="ez60JtmbV1Yq663wybj8-2" value="&lt;h1 style=&quot;text-align: center; margin-top: 0px;&quot;&gt;Menentukan Bilangan ganjil atau genap&lt;/h1&gt;&lt;p&gt;&lt;br&gt;&lt;/p&gt;" style="text;html=1;whiteSpace=wrap;overflow=hidden;rounded=0;" vertex="1" parent="1">
          <mxGeometry x="230.25" width="390" height="60" as="geometry" />
        </mxCell>
        <mxCell id="ez60JtmbV1Yq663wybj8-4" value="&lt;font style=&quot;font-size: 22px;&quot;&gt;Masukkan Bilangan&lt;/font&gt;" style="shape=parallelogram;html=1;strokeWidth=2;perimeter=parallelogramPerimeter;whiteSpace=wrap;rounded=1;arcSize=12;size=0.23;" vertex="1" parent="1">
          <mxGeometry x="279" y="252" width="291" height="60" as="geometry" />
        </mxCell>
        <mxCell id="ez60JtmbV1Yq663wybj8-7" value="&lt;div style=&quot;&quot;&gt;&lt;font style=&quot;font-size: 20px;&quot;&gt;Hasil = Bilangan%2&lt;/font&gt;&lt;/div&gt;" style="rounded=0;whiteSpace=wrap;html=1;align=center;" vertex="1" parent="1">
          <mxGeometry x="325.5" y="410" width="198" height="60" as="geometry" />
        </mxCell>
        <mxCell id="ez60JtmbV1Yq663wybj8-21" value="" style="verticalLabelPosition=bottom;verticalAlign=top;html=1;strokeWidth=2;shape=mxgraph.arrows2.arrow;dy=0.6;dx=40;notch=0;rotation=90;" vertex="1" parent="1">
          <mxGeometry x="385" y="192" width="80" height="25" as="geometry" />
        </mxCell>
        <mxCell id="ez60JtmbV1Yq663wybj8-22" value="" style="verticalLabelPosition=bottom;verticalAlign=top;html=1;strokeWidth=2;shape=mxgraph.arrows2.arrow;dy=0.6;dx=40;notch=0;rotation=90;" vertex="1" parent="1">
          <mxGeometry x="385.5" y="342" width="80" height="25" as="geometry" />
        </mxCell>
        <mxCell id="ez60JtmbV1Yq663wybj8-24" value="" style="verticalLabelPosition=bottom;verticalAlign=top;html=1;strokeWidth=2;shape=mxgraph.arrows2.arrow;dy=0.6;dx=40;notch=0;rotation=90;" vertex="1" parent="1">
          <mxGeometry x="385.5" y="510" width="80" height="25" as="geometry" />
        </mxCell>
        <mxCell id="ez60JtmbV1Yq663wybj8-25" value="" style="verticalLabelPosition=bottom;verticalAlign=top;html=1;strokeWidth=2;shape=mxgraph.arrows2.arrow;dy=0.6;dx=40;notch=0;rotation=90;" vertex="1" parent="1">
          <mxGeometry x="385.5" y="670" width="80" height="25" as="geometry" />
        </mxCell>
        <mxCell id="ez60JtmbV1Yq663wybj8-27" value="&lt;font style=&quot;font-size: 24px;&quot;&gt;Start&lt;/font&gt;" style="strokeWidth=2;html=1;shape=mxgraph.flowchart.terminator;whiteSpace=wrap;" vertex="1" parent="1">
          <mxGeometry x="348" y="103" width="154.5" height="60" as="geometry" />
        </mxCell>
        <mxCell id="ez60JtmbV1Yq663wybj8-29" value="&lt;font style=&quot;font-size: 24px;&quot;&gt;Selesai&lt;/font&gt;" style="strokeWidth=2;html=1;shape=mxgraph.flowchart.terminator;whiteSpace=wrap;" vertex="1" parent="1">
          <mxGeometry x="348" y="730" width="154.5" height="60" as="geometry" />
        </mxCell>
        <mxCell id="ez60JtmbV1Yq663wybj8-31" value="&lt;div style=&quot;&quot;&gt;&lt;font style=&quot;font-size: 20px;&quot;&gt;tampilkan hasil&lt;/font&gt;&lt;/div&gt;" style="rounded=0;whiteSpace=wrap;html=1;align=center;" vertex="1" parent="1">
          <mxGeometry x="325.5" y="570" width="198" height="60" as="geometry" />
        </mxCell>
        <mxCell id="ez60JtmbV1Yq663wybj8-33" value="&lt;font style=&quot;font-size: 22px;&quot;&gt;Masukkan variabel&lt;/font&gt;&lt;div&gt;&lt;font style=&quot;font-size: 22px;&quot;&gt;UlangBilangan&lt;/font&gt;&lt;/div&gt;" style="shape=parallelogram;html=1;strokeWidth=2;perimeter=parallelogramPerimeter;whiteSpace=wrap;rounded=1;arcSize=12;size=0.23;" vertex="1" parent="1">
          <mxGeometry x="1121" y="475" width="310" height="60" as="geometry" />
        </mxCell>
        <mxCell id="ez60JtmbV1Yq663wybj8-34" value="&lt;div style=&quot;&quot;&gt;&lt;font style=&quot;font-size: 20px;&quot;&gt;Loop 100 kali = bilangan % 2, UlangBilangan +=&lt;/font&gt;&lt;/div&gt;" style="rounded=0;whiteSpace=wrap;html=1;align=center;" vertex="1" parent="1">
          <mxGeometry x="1175.5" y="635" width="198" height="85" as="geometry" />
        </mxCell>
        <mxCell id="ez60JtmbV1Yq663wybj8-35" value="" style="verticalLabelPosition=bottom;verticalAlign=top;html=1;strokeWidth=2;shape=mxgraph.arrows2.arrow;dy=0.6;dx=40;notch=0;rotation=90;" vertex="1" parent="1">
          <mxGeometry x="1235" y="252" width="80" height="25" as="geometry" />
        </mxCell>
        <mxCell id="ez60JtmbV1Yq663wybj8-36" value="" style="verticalLabelPosition=bottom;verticalAlign=top;html=1;strokeWidth=2;shape=mxgraph.arrows2.arrow;dy=0.6;dx=40;notch=0;rotation=90;" vertex="1" parent="1">
          <mxGeometry x="1235.5" y="567" width="80" height="25" as="geometry" />
        </mxCell>
        <mxCell id="ez60JtmbV1Yq663wybj8-37" value="" style="verticalLabelPosition=bottom;verticalAlign=top;html=1;strokeWidth=2;shape=mxgraph.arrows2.arrow;dy=0.6;dx=40;notch=0;rotation=0;" vertex="1" parent="1">
          <mxGeometry x="1090" y="810" width="150" height="25" as="geometry" />
        </mxCell>
        <mxCell id="ez60JtmbV1Yq663wybj8-38" value="" style="verticalLabelPosition=bottom;verticalAlign=top;html=1;strokeWidth=2;shape=mxgraph.arrows2.arrow;dy=0.6;dx=40;notch=0;rotation=90;" vertex="1" parent="1">
          <mxGeometry x="1235.5" y="895" width="80" height="25" as="geometry" />
        </mxCell>
        <mxCell id="ez60JtmbV1Yq663wybj8-39" value="&lt;font style=&quot;font-size: 24px;&quot;&gt;Start&lt;/font&gt;" style="strokeWidth=2;html=1;shape=mxgraph.flowchart.terminator;whiteSpace=wrap;" vertex="1" parent="1">
          <mxGeometry x="1198" y="163" width="154.5" height="60" as="geometry" />
        </mxCell>
        <mxCell id="ez60JtmbV1Yq663wybj8-40" value="&lt;font style=&quot;font-size: 24px;&quot;&gt;Selesai&lt;/font&gt;" style="strokeWidth=2;html=1;shape=mxgraph.flowchart.terminator;whiteSpace=wrap;" vertex="1" parent="1">
          <mxGeometry x="1198" y="955" width="154.5" height="60" as="geometry" />
        </mxCell>
        <mxCell id="ez60JtmbV1Yq663wybj8-41" value="&lt;div style=&quot;&quot;&gt;&lt;font style=&quot;font-size: 20px;&quot;&gt;if Ganjil&lt;/font&gt;&lt;/div&gt;" style="rounded=0;whiteSpace=wrap;html=1;align=center;" vertex="1" parent="1">
          <mxGeometry x="881.5" y="635" width="198" height="60" as="geometry" />
        </mxCell>
        <mxCell id="ez60JtmbV1Yq663wybj8-42" value="&lt;h1 style=&quot;text-align: center; margin-top: 0px;&quot;&gt;Menampilkan bilangan ganjil dari 0-100&lt;/h1&gt;" style="text;html=1;whiteSpace=wrap;overflow=hidden;rounded=0;" vertex="1" parent="1">
          <mxGeometry x="1079.5" y="40" width="390" height="60" as="geometry" />
        </mxCell>
        <mxCell id="ez60JtmbV1Yq663wybj8-43" value="&lt;font style=&quot;font-size: 22px;&quot;&gt;Masukkan Bilangan&lt;/font&gt;" style="shape=parallelogram;html=1;strokeWidth=2;perimeter=parallelogramPerimeter;whiteSpace=wrap;rounded=1;arcSize=12;size=0.23;" vertex="1" parent="1">
          <mxGeometry x="1140" y="312" width="291" height="60" as="geometry" />
        </mxCell>
        <mxCell id="ez60JtmbV1Yq663wybj8-44" value="" style="verticalLabelPosition=bottom;verticalAlign=top;html=1;strokeWidth=2;shape=mxgraph.arrows2.arrow;dy=0.6;dx=40;notch=0;rotation=90;" vertex="1" parent="1">
          <mxGeometry x="1234.5" y="410" width="80" height="25" as="geometry" />
        </mxCell>
        <mxCell id="ez60JtmbV1Yq663wybj8-45" value="&lt;div style=&quot;&quot;&gt;&lt;font style=&quot;font-size: 20px;&quot;&gt;if Genap&lt;/font&gt;&lt;/div&gt;" style="rounded=0;whiteSpace=wrap;html=1;align=center;" vertex="1" parent="1">
          <mxGeometry x="1490" y="635" width="198" height="60" as="geometry" />
        </mxCell>
        <mxCell id="ez60JtmbV1Yq663wybj8-46" value="" style="verticalLabelPosition=bottom;verticalAlign=top;html=1;strokeWidth=2;shape=mxgraph.arrows2.arrow;dy=0.6;dx=40;notch=0;rotation=-180;" vertex="1" parent="1">
          <mxGeometry x="1079.5" y="660" width="80" height="25" as="geometry" />
        </mxCell>
        <mxCell id="ez60JtmbV1Yq663wybj8-47" value="" style="verticalLabelPosition=bottom;verticalAlign=top;html=1;strokeWidth=2;shape=mxgraph.arrows2.arrow;dy=0.6;dx=40;notch=0;rotation=0;" vertex="1" parent="1">
          <mxGeometry x="1389.5" y="660" width="80" height="25" as="geometry" />
        </mxCell>
        <mxCell id="ez60JtmbV1Yq663wybj8-48" value="&lt;div style=&quot;&quot;&gt;&lt;font style=&quot;font-size: 20px;&quot;&gt;Tampilkan Hasil&lt;/font&gt;&lt;/div&gt;" style="rounded=0;whiteSpace=wrap;html=1;align=center;" vertex="1" parent="1">
          <mxGeometry x="881.5" y="790" width="198" height="60" as="geometry" />
        </mxCell>
        <mxCell id="ez60JtmbV1Yq663wybj8-49" value="" style="verticalLabelPosition=bottom;verticalAlign=top;html=1;strokeWidth=2;shape=mxgraph.arrows2.arrow;dy=0.6;dx=40;notch=0;rotation=90;" vertex="1" parent="1">
          <mxGeometry x="940" y="730" width="80" height="25" as="geometry" />
        </mxCell>
        <mxCell id="ez60JtmbV1Yq663wybj8-50" value="" style="verticalLabelPosition=bottom;verticalAlign=top;html=1;strokeWidth=2;shape=mxgraph.arrows2.arrow;dy=0.6;dx=40;notch=0;rotation=-90;" vertex="1" parent="1">
          <mxGeometry x="1234.5" y="755" width="80" height="25" as="geometry" />
        </mxCell>
        <mxCell id="ez60JtmbV1Yq663wybj8-52" value="" style="verticalLabelPosition=bottom;verticalAlign=top;html=1;strokeWidth=2;shape=mxgraph.arrows2.arrow;dy=0.6;dx=40;notch=0;rotation=-180;" vertex="1" parent="1">
          <mxGeometry x="1340" y="810" width="150" height="25" as="geometry" />
        </mxCell>
        <mxCell id="ez60JtmbV1Yq663wybj8-53" value="" style="verticalLabelPosition=bottom;verticalAlign=top;html=1;strokeWidth=2;shape=mxgraph.arrows2.arrow;dy=0.6;dx=40;notch=0;rotation=90;" vertex="1" parent="1">
          <mxGeometry x="1549" y="755" width="80" height="25" as="geometry" />
        </mxCell>
        <mxCell id="ez60JtmbV1Yq663wybj8-55" value="&lt;div style=&quot;&quot;&gt;&lt;font style=&quot;font-size: 20px;&quot;&gt;Check bilangan sesuai operator if dan elif&lt;/font&gt;&lt;/div&gt;" style="rounded=0;whiteSpace=wrap;html=1;align=center;" vertex="1" parent="1">
          <mxGeometry x="2016" y="450" width="198" height="85" as="geometry" />
        </mxCell>
        <mxCell id="ez60JtmbV1Yq663wybj8-56" value="" style="verticalLabelPosition=bottom;verticalAlign=top;html=1;strokeWidth=2;shape=mxgraph.arrows2.arrow;dy=0.6;dx=40;notch=0;rotation=90;" vertex="1" parent="1">
          <mxGeometry x="2075.5" y="219" width="80" height="25" as="geometry" />
        </mxCell>
        <mxCell id="ez60JtmbV1Yq663wybj8-59" value="" style="verticalLabelPosition=bottom;verticalAlign=top;html=1;strokeWidth=2;shape=mxgraph.arrows2.arrow;dy=0.6;dx=40;notch=0;rotation=0;direction=south;" vertex="1" parent="1">
          <mxGeometry x="2103.5" y="692.5" width="25" height="80" as="geometry" />
        </mxCell>
        <mxCell id="ez60JtmbV1Yq663wybj8-60" value="&lt;font style=&quot;font-size: 24px;&quot;&gt;Start&lt;/font&gt;" style="strokeWidth=2;html=1;shape=mxgraph.flowchart.terminator;whiteSpace=wrap;" vertex="1" parent="1">
          <mxGeometry x="2038.5" y="130" width="154.5" height="60" as="geometry" />
        </mxCell>
        <mxCell id="ez60JtmbV1Yq663wybj8-61" value="&lt;font style=&quot;font-size: 24px;&quot;&gt;Selesai&lt;/font&gt;" style="strokeWidth=2;html=1;shape=mxgraph.flowchart.terminator;whiteSpace=wrap;" vertex="1" parent="1">
          <mxGeometry x="2038.5" y="780" width="154.5" height="60" as="geometry" />
        </mxCell>
        <mxCell id="ez60JtmbV1Yq663wybj8-63" value="&lt;font style=&quot;font-size: 22px;&quot;&gt;Masukkan Bilangan&lt;/font&gt;&lt;div&gt;&lt;font style=&quot;font-size: 22px;&quot;&gt;ke var Hari&lt;/font&gt;&lt;/div&gt;" style="shape=parallelogram;html=1;strokeWidth=2;perimeter=parallelogramPerimeter;whiteSpace=wrap;rounded=1;arcSize=12;size=0.23;" vertex="1" parent="1">
          <mxGeometry x="1965" y="277" width="319.5" height="60" as="geometry" />
        </mxCell>
        <mxCell id="ez60JtmbV1Yq663wybj8-64" value="" style="verticalLabelPosition=bottom;verticalAlign=top;html=1;strokeWidth=2;shape=mxgraph.arrows2.arrow;dy=0.6;dx=40;notch=0;rotation=90;" vertex="1" parent="1">
          <mxGeometry x="2075" y="377" width="80" height="25" as="geometry" />
        </mxCell>
        <mxCell id="ez60JtmbV1Yq663wybj8-68" value="&lt;div style=&quot;&quot;&gt;&lt;font style=&quot;font-size: 20px;&quot;&gt;Tampilkan Hari&lt;/font&gt;&lt;/div&gt;" style="rounded=0;whiteSpace=wrap;html=1;align=center;" vertex="1" parent="1">
          <mxGeometry x="2017" y="625" width="198" height="60" as="geometry" />
        </mxCell>
        <mxCell id="ez60JtmbV1Yq663wybj8-69" value="" style="verticalLabelPosition=bottom;verticalAlign=top;html=1;strokeWidth=2;shape=mxgraph.arrows2.arrow;dy=0.6;dx=40;notch=0;rotation=90;" vertex="1" parent="1">
          <mxGeometry x="2075" y="570" width="80" height="25" as="geometry" />
        </mxCell>
        <mxCell id="ez60JtmbV1Yq663wybj8-73" value="&lt;h1 style=&quot;text-align: center; margin-top: 0px;&quot;&gt;Menentukan Nama hari dari Bilangan 1-7&lt;/h1&gt;" style="text;html=1;whiteSpace=wrap;overflow=hidden;rounded=0;" vertex="1" parent="1">
          <mxGeometry x="1930" y="30" width="390" height="60" as="geometry" />
        </mxCell>
      </root>
    </mxGraphModel>
  </diagram>
</mxfile>
